<svg xmlns="http://www.w3.org/2000/svg" xmlns:xlink="http://www.w3.org/1999/xlink" width="1920" zoomAndPan="magnify" viewBox="0 0 1440 809.999993" height="1080" preserveAspectRatio="xMidYMid meet" version="1.0"><defs><g/></defs><g fill="#ffffff" fill-opacity="1"><g transform="translate(368.33002, 556.767962)"><g><path d="M 232.1875 0 L 232.1875 -178.21875 C 232.1875 -207.5 227.578125 -230.921875 205.40625 -253.09375 C 188.25 -270.25 169.421875 -278.203125 142.234375 -279.03125 L 142.234375 0 Z M 110.859375 0 L 110.859375 -279.03125 L 20.921875 -279.03125 L 20.921875 0 Z M 110.859375 0 "/></g></g></g><g fill="#ffffff" fill-opacity="1"><g transform="translate(619.752225, 556.767962)"><g><path d="M 0 -209.171875 L 69.859375 -209.171875 L 69.859375 -279.03125 Z M 101.234375 0 L 101.234375 -279.03125 C 128.4375 -278.203125 147.25 -270.25 164.40625 -253.09375 C 186.578125 -230.921875 191.1875 -207.5 191.1875 -178.21875 L 191.1875 0 Z M 101.234375 0 "/></g></g></g><g fill="#ffffff" fill-opacity="1"><g transform="translate(828.922104, 556.767962)"><g><path d="M 133.03125 0 C 160.21875 -0.84375 179.046875 -8.78125 196.203125 -25.9375 C 218.375 -48.109375 222.984375 -71.53125 222.984375 -100.828125 L 222.984375 -178.21875 C 222.984375 -207.5 218.375 -230.921875 196.203125 -253.09375 C 179.046875 -270.25 160.21875 -278.203125 133.03125 -279.03125 Z M 9.625 -185.75 C 9.625 -135.125 49.78125 -95.375 102.90625 -92.875 L 102.90625 -279.03125 C 49.78125 -276.53125 9.625 -236.78125 9.625 -185.75 Z M 9.625 -185.75 "/></g></g></g></svg>